<mxfile host="app.diagrams.net" modified="2021-06-10T04:24:27.255Z" agent="5.0 (Windows NT 10.0; Win64; x64) AppleWebKit/537.36 (KHTML, like Gecko) Chrome/91.0.4472.77 Safari/537.36" etag="HjDJc6lJm8UgkrZcvAd0" version="14.7.6" type="github">
  <diagram id="PFKHonI2Ndzf-K34Xqpl" name="Page-1">
    <mxGraphModel dx="1728" dy="882" grid="1" gridSize="10" guides="1" tooltips="1" connect="1" arrows="1" fold="1" page="1" pageScale="1" pageWidth="827" pageHeight="583" math="0" shadow="0">
      <root>
        <mxCell id="0" />
        <mxCell id="1" parent="0" />
        <mxCell id="tLT48Ian_qCinAYYUF5K-14" value="" style="edgeStyle=orthogonalEdgeStyle;rounded=0;orthogonalLoop=1;jettySize=auto;html=1;entryX=0.5;entryY=1;entryDx=0;entryDy=0;" edge="1" parent="1" source="tLT48Ian_qCinAYYUF5K-1" target="tLT48Ian_qCinAYYUF5K-6">
          <mxGeometry relative="1" as="geometry">
            <Array as="points">
              <mxPoint x="454" y="217" />
              <mxPoint x="614" y="217" />
            </Array>
          </mxGeometry>
        </mxCell>
        <mxCell id="tLT48Ian_qCinAYYUF5K-15" value="" style="edgeStyle=orthogonalEdgeStyle;rounded=0;orthogonalLoop=1;jettySize=auto;html=1;" edge="1" parent="1" source="tLT48Ian_qCinAYYUF5K-1" target="tLT48Ian_qCinAYYUF5K-4">
          <mxGeometry relative="1" as="geometry" />
        </mxCell>
        <mxCell id="tLT48Ian_qCinAYYUF5K-16" value="" style="edgeStyle=orthogonalEdgeStyle;rounded=0;orthogonalLoop=1;jettySize=auto;html=1;" edge="1" parent="1" source="tLT48Ian_qCinAYYUF5K-1" target="tLT48Ian_qCinAYYUF5K-7">
          <mxGeometry relative="1" as="geometry">
            <mxPoint x="214" y="199" as="targetPoint" />
            <Array as="points">
              <mxPoint x="374" y="217" />
              <mxPoint x="214" y="217" />
            </Array>
          </mxGeometry>
        </mxCell>
        <mxCell id="tLT48Ian_qCinAYYUF5K-17" value="" style="edgeStyle=orthogonalEdgeStyle;rounded=0;orthogonalLoop=1;jettySize=auto;html=1;" edge="1" parent="1" source="tLT48Ian_qCinAYYUF5K-1" target="tLT48Ian_qCinAYYUF5K-3">
          <mxGeometry relative="1" as="geometry" />
        </mxCell>
        <mxCell id="tLT48Ian_qCinAYYUF5K-18" value="" style="edgeStyle=orthogonalEdgeStyle;rounded=0;orthogonalLoop=1;jettySize=auto;html=1;" edge="1" parent="1" source="tLT48Ian_qCinAYYUF5K-1" target="tLT48Ian_qCinAYYUF5K-5">
          <mxGeometry relative="1" as="geometry" />
        </mxCell>
        <mxCell id="tLT48Ian_qCinAYYUF5K-19" value="" style="edgeStyle=orthogonalEdgeStyle;rounded=0;orthogonalLoop=1;jettySize=auto;html=1;" edge="1" parent="1" source="tLT48Ian_qCinAYYUF5K-1" target="tLT48Ian_qCinAYYUF5K-2">
          <mxGeometry relative="1" as="geometry" />
        </mxCell>
        <mxCell id="tLT48Ian_qCinAYYUF5K-1" value="&lt;font style=&quot;font-size: 14px&quot;&gt;FATO_PASSAGENS&lt;/font&gt;" style="rounded=1;whiteSpace=wrap;html=1;fillColor=#dae8fc;strokeColor=#6c8ebf;" vertex="1" parent="1">
          <mxGeometry x="334" y="237" width="160" height="40" as="geometry" />
        </mxCell>
        <mxCell id="tLT48Ian_qCinAYYUF5K-25" value="" style="edgeStyle=orthogonalEdgeStyle;rounded=0;orthogonalLoop=1;jettySize=auto;html=1;" edge="1" parent="1" source="tLT48Ian_qCinAYYUF5K-2" target="tLT48Ian_qCinAYYUF5K-24">
          <mxGeometry relative="1" as="geometry" />
        </mxCell>
        <mxCell id="tLT48Ian_qCinAYYUF5K-2" value="&lt;span style=&quot;font-size: 14px&quot;&gt;DIM_USUARIO&lt;/span&gt;" style="rounded=1;whiteSpace=wrap;html=1;fillColor=#dae8fc;strokeColor=#6c8ebf;" vertex="1" parent="1">
          <mxGeometry x="134" y="237" width="160" height="40" as="geometry" />
        </mxCell>
        <mxCell id="tLT48Ian_qCinAYYUF5K-3" value="&lt;span style=&quot;font-size: 14px&quot;&gt;DIM_VIAGEM&lt;/span&gt;" style="rounded=1;whiteSpace=wrap;html=1;fillColor=#dae8fc;strokeColor=#6c8ebf;" vertex="1" parent="1">
          <mxGeometry x="334" y="157" width="160" height="40" as="geometry" />
        </mxCell>
        <mxCell id="tLT48Ian_qCinAYYUF5K-35" value="" style="edgeStyle=orthogonalEdgeStyle;rounded=0;orthogonalLoop=1;jettySize=auto;html=1;" edge="1" parent="1" source="tLT48Ian_qCinAYYUF5K-4" target="tLT48Ian_qCinAYYUF5K-34">
          <mxGeometry relative="1" as="geometry" />
        </mxCell>
        <mxCell id="tLT48Ian_qCinAYYUF5K-4" value="&lt;span style=&quot;font-size: 14px&quot;&gt;DIM_VIAGEM&lt;/span&gt;" style="rounded=1;whiteSpace=wrap;html=1;fillColor=#dae8fc;strokeColor=#6c8ebf;" vertex="1" parent="1">
          <mxGeometry x="334" y="317" width="160" height="40" as="geometry" />
        </mxCell>
        <mxCell id="tLT48Ian_qCinAYYUF5K-5" value="&lt;span style=&quot;font-size: 14px&quot;&gt;DIM_ROTA&lt;/span&gt;" style="rounded=1;whiteSpace=wrap;html=1;fillColor=#dae8fc;strokeColor=#6c8ebf;" vertex="1" parent="1">
          <mxGeometry x="534" y="237" width="160" height="40" as="geometry" />
        </mxCell>
        <mxCell id="tLT48Ian_qCinAYYUF5K-6" value="&lt;span style=&quot;font-size: 14px&quot;&gt;DIM_PARADA&lt;/span&gt;" style="rounded=1;whiteSpace=wrap;html=1;fillColor=#dae8fc;strokeColor=#6c8ebf;" vertex="1" parent="1">
          <mxGeometry x="534" y="157" width="160" height="40" as="geometry" />
        </mxCell>
        <mxCell id="tLT48Ian_qCinAYYUF5K-21" value="" style="edgeStyle=orthogonalEdgeStyle;rounded=0;orthogonalLoop=1;jettySize=auto;html=1;" edge="1" parent="1" source="tLT48Ian_qCinAYYUF5K-7" target="tLT48Ian_qCinAYYUF5K-20">
          <mxGeometry relative="1" as="geometry" />
        </mxCell>
        <mxCell id="tLT48Ian_qCinAYYUF5K-7" value="&lt;span style=&quot;font-size: 14px&quot;&gt;DIM_VEICULO&lt;/span&gt;" style="rounded=1;whiteSpace=wrap;html=1;fillColor=#dae8fc;strokeColor=#6c8ebf;" vertex="1" parent="1">
          <mxGeometry x="134" y="157" width="160" height="40" as="geometry" />
        </mxCell>
        <mxCell id="tLT48Ian_qCinAYYUF5K-20" value="&lt;span style=&quot;font-size: 14px&quot;&gt;TBL_TIPO_VEICULO&lt;/span&gt;" style="rounded=1;whiteSpace=wrap;html=1;fillColor=#f5f5f5;strokeColor=#666666;fontColor=#333333;" vertex="1" parent="1">
          <mxGeometry x="134" y="77" width="160" height="40" as="geometry" />
        </mxCell>
        <mxCell id="tLT48Ian_qCinAYYUF5K-30" value="" style="edgeStyle=orthogonalEdgeStyle;rounded=0;orthogonalLoop=1;jettySize=auto;html=1;" edge="1" parent="1" source="tLT48Ian_qCinAYYUF5K-24" target="tLT48Ian_qCinAYYUF5K-26">
          <mxGeometry relative="1" as="geometry" />
        </mxCell>
        <mxCell id="tLT48Ian_qCinAYYUF5K-24" value="&lt;span style=&quot;font-size: 14px&quot;&gt;TBL_ENDERECO&lt;/span&gt;" style="rounded=1;whiteSpace=wrap;html=1;fillColor=#f5f5f5;strokeColor=#666666;fontColor=#333333;" vertex="1" parent="1">
          <mxGeometry x="134" y="317" width="160" height="40" as="geometry" />
        </mxCell>
        <mxCell id="tLT48Ian_qCinAYYUF5K-31" value="" style="edgeStyle=orthogonalEdgeStyle;rounded=0;orthogonalLoop=1;jettySize=auto;html=1;" edge="1" parent="1" source="tLT48Ian_qCinAYYUF5K-26" target="tLT48Ian_qCinAYYUF5K-27">
          <mxGeometry relative="1" as="geometry" />
        </mxCell>
        <mxCell id="tLT48Ian_qCinAYYUF5K-26" value="&lt;span style=&quot;font-size: 14px&quot;&gt;TBL_BAIRRO&lt;/span&gt;" style="rounded=1;whiteSpace=wrap;html=1;fillColor=#f5f5f5;strokeColor=#666666;fontColor=#333333;" vertex="1" parent="1">
          <mxGeometry x="134" y="397" width="160" height="40" as="geometry" />
        </mxCell>
        <mxCell id="tLT48Ian_qCinAYYUF5K-32" value="" style="edgeStyle=orthogonalEdgeStyle;rounded=0;orthogonalLoop=1;jettySize=auto;html=1;" edge="1" parent="1" source="tLT48Ian_qCinAYYUF5K-27" target="tLT48Ian_qCinAYYUF5K-28">
          <mxGeometry relative="1" as="geometry" />
        </mxCell>
        <mxCell id="tLT48Ian_qCinAYYUF5K-27" value="&lt;span style=&quot;font-size: 14px&quot;&gt;TBL_CIDADE&lt;/span&gt;" style="rounded=1;whiteSpace=wrap;html=1;fillColor=#f5f5f5;strokeColor=#666666;fontColor=#333333;" vertex="1" parent="1">
          <mxGeometry x="134" y="467" width="160" height="40" as="geometry" />
        </mxCell>
        <mxCell id="tLT48Ian_qCinAYYUF5K-33" value="" style="edgeStyle=orthogonalEdgeStyle;rounded=0;orthogonalLoop=1;jettySize=auto;html=1;" edge="1" parent="1" source="tLT48Ian_qCinAYYUF5K-28" target="tLT48Ian_qCinAYYUF5K-29">
          <mxGeometry relative="1" as="geometry" />
        </mxCell>
        <mxCell id="tLT48Ian_qCinAYYUF5K-28" value="&lt;span style=&quot;font-size: 14px&quot;&gt;TBL_ESTADO&lt;/span&gt;" style="rounded=1;whiteSpace=wrap;html=1;fillColor=#f5f5f5;strokeColor=#666666;fontColor=#333333;" vertex="1" parent="1">
          <mxGeometry x="334" y="467" width="160" height="40" as="geometry" />
        </mxCell>
        <mxCell id="tLT48Ian_qCinAYYUF5K-29" value="&lt;span style=&quot;font-size: 14px&quot;&gt;TBL_REGIAO&lt;/span&gt;" style="rounded=1;whiteSpace=wrap;html=1;fillColor=#f5f5f5;strokeColor=#666666;fontColor=#333333;" vertex="1" parent="1">
          <mxGeometry x="334" y="397" width="160" height="40" as="geometry" />
        </mxCell>
        <mxCell id="tLT48Ian_qCinAYYUF5K-34" value="&lt;span style=&quot;font-size: 14px&quot;&gt;TBL_ORIGEM&lt;/span&gt;" style="rounded=1;whiteSpace=wrap;html=1;fillColor=#f5f5f5;strokeColor=#666666;fontColor=#333333;" vertex="1" parent="1">
          <mxGeometry x="534" y="317" width="160" height="40" as="geometry" />
        </mxCell>
      </root>
    </mxGraphModel>
  </diagram>
</mxfile>
